<?xml version="1.0" encoding="utf-8"?>
<!-- Generator: Adobe Illustrator 25.1.0, SVG Export Plug-In . SVG Version: 6.00 Build 0)  -->
<svg version="1.1" id="Layer_1" xmlns="http://www.w3.org/2000/svg" xmlns:xlink="http://www.w3.org/1999/xlink" x="0px" y="0px"
	 viewBox="0 0 73 12" style="enable-background:new 0 0 73 12;" xml:space="preserve">
<style type="text/css">
	.st0{fill:#FFFFFF;}
</style>
<g>
	<path class="st0" d="M6,5.4h3.8V3.6c0-0.6-0.2-0.9-0.6-0.9c0,0-0.1,0-0.3,0c-0.1,0-0.2,0-0.3,0c-0.3,0-0.4-0.1-0.4-0.4
		c0-0.3,0.2-0.4,0.5-0.4c0.1,0,0.3,0,0.6,0.1c0.3,0.1,0.6,0.1,0.8,0.1c0.4,0,0.8,0,1.2-0.1c0.2,0,0.4-0.1,0.5-0.1
		c0.4,0,0.5,0.1,0.5,0.4c0,0.3-0.1,0.4-0.4,0.4c-0.1,0-0.2,0-0.3,0s-0.2,0-0.3,0c-0.4,0-0.6,0.3-0.6,0.9v4.8c0,0.6,0.2,0.9,0.6,0.9
		c0.1,0,0.2,0,0.3,0s0.2,0,0.3,0c0.2,0,0.4,0.1,0.4,0.4c0,0.3-0.2,0.4-0.5,0.4c-0.1,0-0.2,0-0.5-0.1c-0.3-0.1-0.6-0.1-0.9-0.1
		c-0.4,0-0.8,0-1.1,0.1C9,10,8.8,10,8.8,10c-0.4,0-0.5-0.1-0.5-0.4c0-0.3,0.1-0.4,0.4-0.4c0.1,0,0.2,0,0.3,0s0.2,0,0.3,0
		c0.3,0,0.5-0.2,0.6-0.7c0-0.1,0-0.4,0-1.1V6.2H6v1.4c0,0.7,0,1,0,1.1C6,9.1,6.2,9.3,6.6,9.3c0.1,0,0.2,0,0.3,0c0.1,0,0.2,0,0.3,0
		c0.2,0,0.4,0.1,0.4,0.4C7.5,9.9,7.4,10,7,10c-0.1,0-0.2,0-0.5-0.1c-0.4-0.1-0.7-0.1-1-0.1c-0.3,0-0.7,0-1.1,0.1l-0.3,0
		C4,10,4,10,4,10c-0.4,0-0.6-0.1-0.6-0.4c0-0.1,0-0.2,0.1-0.3c0.1-0.1,0.2-0.1,0.3-0.1c0.1,0,0.2,0,0.3,0c0.1,0,0.2,0,0.3,0
		C4.8,9.3,5,9,5,8.4V3.6C5,3,4.8,2.7,4.4,2.7c-0.1,0-0.1,0-0.3,0s-0.2,0-0.3,0c-0.1,0-0.2,0-0.3-0.1C3.4,2.5,3.4,2.5,3.4,2.3
		c0-0.3,0.2-0.4,0.6-0.4c0.1,0,0.2,0,0.4,0.1C4.7,2,5.1,2.1,5.5,2.1c0.2,0,0.4,0,0.8-0.1C6.6,2,6.8,1.9,7,1.9c0.4,0,0.5,0.1,0.5,0.4
		c0,0.1,0,0.2-0.1,0.3C7.4,2.7,7.3,2.7,7.2,2.7c-0.1,0-0.2,0-0.3,0c-0.1,0-0.2,0-0.3,0C6.2,2.7,6,3,6,3.6L6,5.4z"/>
	<path class="st0" d="M18.5,6.5c0,0.3,0,0.5-0.1,0.6c0,0.1-0.2,0.1-0.3,0.1h-3.8c-0.1,0-0.2,0-0.2,0c0,0,0,0.1,0,0.1
		c0,0.6,0.2,1.1,0.5,1.5s0.8,0.6,1.3,0.6c0.4,0,0.7-0.1,1-0.3s0.5-0.4,0.6-0.7L17.6,8c0.1-0.2,0.2-0.3,0.4-0.3
		c0.3,0,0.4,0.2,0.4,0.5c0,0.5-0.3,1-0.8,1.4c-0.5,0.4-1.1,0.6-1.8,0.6c-0.8,0-1.5-0.3-2-0.8S13.1,8,13.1,7.1c0-1,0.3-1.8,0.8-2.4
		c0.5-0.6,1.2-0.9,2.1-0.9c0.8,0,1.4,0.3,1.9,0.8C18.3,5,18.5,5.7,18.5,6.5z M14.1,6.1c0,0.1,0.1,0.2,0.3,0.2h2.9
		c0.2,0,0.3-0.1,0.3-0.2c0-0.4-0.2-0.8-0.5-1.1s-0.7-0.5-1.1-0.5c-0.4,0-0.9,0.2-1.2,0.5C14.3,5.4,14.1,5.7,14.1,6.1z"/>
	<path class="st0" d="M21.3,5v3.7c0,0.4,0.1,0.6,0.3,0.6c0,0,0.1,0,0.3-0.1c0.1,0,0.2,0,0.2,0c0.3,0,0.4,0.1,0.4,0.4
		c0,0.3-0.2,0.4-0.5,0.4c-0.1,0-0.3,0-0.6,0c-0.3,0-0.5,0-0.6,0c-0.1,0-0.3,0-0.6,0c-0.3,0-0.4,0-0.6,0h-0.1c-0.3,0-0.5-0.1-0.5-0.4
		c0-0.2,0.1-0.4,0.4-0.4c0,0,0,0,0.1,0c0,0,0.1,0,0.1,0c0.2,0,0.3,0.1,0.4,0.1c0.1,0,0.2-0.1,0.3-0.2c0-0.1,0.1-0.4,0.1-1l0-0.8V5.4
		V3.3c0-0.2,0-0.4,0-0.5c-0.1-0.2-0.2-0.3-0.3-0.3c0,0-0.1,0-0.3,0c-0.1,0-0.2,0-0.2,0c-0.3,0-0.4-0.1-0.4-0.4
		c0-0.3,0.2-0.4,0.5-0.4c0.1,0,0.2,0,0.2,0l0.3,0c0.1,0,0.2,0,0.3,0c0.1,0,0.2,0,0.4,0c0.2,0,0.3,0,0.4,0c0.2,0,0.3,0.1,0.3,0.3
		c0,0.1,0,0.1,0,0.2C21.3,3,21.3,3.8,21.3,5z"/>
	<path class="st0" d="M25,5v3.7c0,0.4,0.1,0.6,0.3,0.6c0,0,0.1,0,0.3-0.1c0.1,0,0.2,0,0.2,0c0.3,0,0.4,0.1,0.4,0.4
		c0,0.3-0.2,0.4-0.5,0.4c-0.1,0-0.3,0-0.6,0c-0.3,0-0.5,0-0.6,0c-0.1,0-0.3,0-0.6,0c-0.3,0-0.4,0-0.6,0h-0.1c-0.3,0-0.5-0.1-0.5-0.4
		c0-0.2,0.1-0.4,0.4-0.4c0,0,0,0,0.1,0c0,0,0.1,0,0.1,0c0.2,0,0.3,0.1,0.4,0.1c0.1,0,0.2-0.1,0.3-0.2c0-0.1,0.1-0.4,0.1-1l0-0.8V5.4
		V3.3c0-0.2,0-0.4,0-0.5c-0.1-0.2-0.2-0.3-0.3-0.3c0,0-0.1,0-0.3,0c-0.1,0-0.2,0-0.2,0c-0.3,0-0.4-0.1-0.4-0.4
		c0-0.3,0.2-0.4,0.5-0.4c0.1,0,0.2,0,0.2,0l0.3,0c0.1,0,0.2,0,0.3,0c0.1,0,0.2,0,0.4,0c0.2,0,0.3,0,0.4,0c0.2,0,0.3,0.1,0.3,0.3
		c0,0.1,0,0.1,0,0.2C25,3,25,3.8,25,5z"/>
	<path class="st0" d="M29.6,10.2c-0.8,0-1.5-0.3-2-0.9S26.8,8,26.8,7s0.3-1.8,0.8-2.3c0.5-0.6,1.2-0.9,2-0.9c0.9,0,1.6,0.3,2.1,0.9
		c0.5,0.6,0.8,1.3,0.8,2.3c0,1-0.3,1.8-0.8,2.4C31.1,9.9,30.4,10.2,29.6,10.2z M29.6,4.6c-0.6,0-1,0.2-1.3,0.6
		c-0.3,0.4-0.5,0.9-0.5,1.7V7c0,0.8,0.2,1.3,0.5,1.8c0.3,0.4,0.8,0.6,1.3,0.6c0.6,0,1-0.2,1.4-0.6c0.3-0.4,0.5-1,0.5-1.8
		C31.4,5.4,30.8,4.6,29.6,4.6z"/>
	<path class="st0" d="M38.5,3.8l1,5.1l1.2-6.2c0.1-0.5,0.4-0.8,0.8-0.8c0.5,0,0.7,0.2,0.8,0.7L43.5,9l1-5c0.1-0.4,0.1-0.6,0.1-0.8
		c0-0.3-0.2-0.5-0.5-0.5c-0.1,0-0.2,0-0.3,0s-0.2,0-0.3,0c-0.3,0-0.5-0.1-0.5-0.4c0-0.3,0.2-0.4,0.5-0.4c0.1,0,0.3,0,0.4,0
		C44.6,2,45,2.1,45.2,2.1c0.2,0,0.4,0,0.7-0.1c0.3,0,0.6-0.1,0.7-0.1c0.3,0,0.4,0.1,0.4,0.4c0,0.3-0.1,0.4-0.4,0.4c0,0-0.1,0-0.2,0
		s-0.2,0-0.2,0c-0.2,0-0.3,0.1-0.4,0.2s-0.2,0.4-0.3,0.9l-1.3,5.7c-0.1,0.4-0.4,0.7-0.7,0.7c-0.4,0-0.7-0.3-0.8-0.8L41.5,3l-1.3,6.5
		c-0.1,0.4-0.3,0.6-0.7,0.6c-0.4,0-0.6-0.2-0.7-0.7l-1.4-6c-0.1-0.3-0.2-0.5-0.3-0.6c-0.1-0.1-0.3-0.2-0.5-0.2h-0.1l-0.3,0
		c-0.3,0-0.4-0.1-0.4-0.4c0-0.3,0.1-0.4,0.4-0.4c0.1,0,0.2,0,0.4,0c0.4,0.1,0.9,0.1,1.3,0.1c0.2,0,0.6,0,1.3-0.1c0.1,0,0.2,0,0.3,0
		c0.3,0,0.4,0.1,0.4,0.4c0,0.3-0.2,0.4-0.5,0.4c-0.1,0-0.2,0-0.3,0c-0.1,0-0.3,0-0.3,0c-0.3,0-0.4,0.1-0.4,0.4c0,0.1,0,0.2,0,0.3
		L38.5,3.8z"/>
	<path class="st0" d="M49.5,10.2c-0.8,0-1.5-0.3-2-0.9S46.8,8,46.8,7s0.3-1.8,0.8-2.3s1.2-0.9,2-0.9c0.9,0,1.6,0.3,2.1,0.9
		c0.5,0.6,0.8,1.3,0.8,2.3c0,1-0.3,1.8-0.8,2.4C51.1,9.9,50.4,10.2,49.5,10.2z M49.6,4.6c-0.6,0-1,0.2-1.3,0.6
		c-0.3,0.4-0.5,0.9-0.5,1.7V7c0,0.8,0.2,1.3,0.5,1.8c0.3,0.4,0.8,0.6,1.3,0.6c0.6,0,1-0.2,1.4-0.6c0.3-0.4,0.5-1,0.5-1.8
		C51.4,5.4,50.8,4.6,49.6,4.6z"/>
	<path class="st0" d="M55.1,4.3v0.3c0.4-0.6,1-0.9,1.7-0.9c0.6,0,1,0.2,1.4,0.5c0.3,0.3,0.5,0.7,0.5,1.2c0,0.4-0.1,0.6-0.3,0.9
		c-0.2,0.2-0.4,0.3-0.7,0.3c-0.2,0-0.3-0.1-0.5-0.2c-0.1-0.1-0.2-0.2-0.2-0.4c0-0.1,0-0.2,0.1-0.3c0.1-0.1,0.2-0.1,0.3-0.1
		c0,0,0.1,0,0.2,0c0-0.1,0.1-0.2,0.1-0.3c0-0.2-0.1-0.4-0.3-0.6S57,4.5,56.7,4.5c-0.6,0-1,0.3-1.2,0.8c-0.1,0.3-0.2,0.9-0.2,1.6v0.8
		c0,0.5,0,0.8,0,0.9c0,0.5,0.2,0.7,0.4,0.7c0.1,0,0.2,0,0.3,0c0.1,0,0.2,0,0.2,0c0.3,0,0.4,0.1,0.4,0.4c0,0.3-0.2,0.4-0.5,0.4h0
		c-0.1,0-0.3,0-0.5,0c-0.2,0-0.4,0-0.5,0c-0.3,0-0.6,0-0.8,0L53.5,10C53.2,10,53,9.9,53,9.6c0-0.2,0.2-0.4,0.5-0.4
		c0.1,0,0.1,0,0.2,0l0.2,0c0.1,0,0.1,0,0.2,0c0.2,0,0.3-0.2,0.3-0.6V8.1l0-2.7c0-0.5-0.1-0.7-0.4-0.7c-0.1,0-0.2,0-0.3,0
		c-0.1,0-0.2,0-0.3,0c-0.3,0-0.4-0.1-0.4-0.4C53,4.1,53.2,4,53.6,4c0.1,0,0.2,0,0.4,0c0.2,0,0.3,0,0.4,0c0.1,0,0.2,0,0.3,0
		c0.1,0,0.1,0,0.2,0C55,4,55.1,4.1,55.1,4.3z"/>
	<path class="st0" d="M61.1,5v3.7c0,0.4,0.1,0.6,0.3,0.6c0,0,0.2,0,0.3-0.1c0.1,0,0.2,0,0.2,0c0.3,0,0.4,0.1,0.4,0.4
		c0,0.3-0.2,0.4-0.5,0.4c-0.1,0-0.3,0-0.6,0s-0.5,0-0.6,0c-0.1,0-0.3,0-0.6,0s-0.4,0-0.6,0h-0.1c-0.3,0-0.5-0.1-0.5-0.4
		c0-0.2,0.1-0.4,0.4-0.4c0,0,0,0,0.1,0c0,0,0.1,0,0.1,0c0.2,0,0.3,0.1,0.4,0.1c0.1,0,0.2-0.1,0.3-0.2s0.1-0.4,0.1-1l0-0.8V5.4V3.3
		c0-0.2,0-0.4,0-0.5c-0.1-0.2-0.2-0.3-0.3-0.3c0,0-0.1,0-0.3,0c-0.1,0-0.2,0-0.2,0c-0.3,0-0.4-0.1-0.4-0.4c0-0.3,0.2-0.4,0.5-0.4
		c0.1,0,0.2,0,0.2,0l0.3,0c0.1,0,0.2,0,0.3,0c0.1,0,0.2,0,0.4,0c0.2,0,0.3,0,0.4,0c0.2,0,0.3,0.1,0.3,0.3c0,0.1,0,0.1,0,0.2
		C61.1,3,61.1,3.8,61.1,5z"/>
	<path class="st0" d="M65.6,3.8c0.8,0,1.4,0.3,1.8,0.9V3.5c0-0.3,0-0.5,0-0.6c0-0.2-0.2-0.4-0.3-0.4c-0.1,0-0.2,0-0.3,0
		s-0.2,0-0.3,0c-0.3,0-0.4-0.1-0.4-0.4c0-0.3,0.2-0.4,0.6-0.4c0.1,0,0.2,0,0.3,0c0.3,0,0.4,0,0.4,0c0.1,0,0.2,0,0.3,0
		c0.1,0,0.2,0,0.3,0c0.2,0,0.3,0.2,0.3,0.5v0.1c0,0,0,0.2,0,0.6c0,0,0,0.4,0,0.9c0,0.4,0,0.7,0,0.9v1.2v2c0,0.5,0,0.9,0.1,1
		c0,0.1,0.1,0.2,0.3,0.2c0.1,0,0.2,0,0.2,0c0.1,0,0.2,0,0.3,0c0.3,0,0.5,0.1,0.5,0.4c0,0.3-0.2,0.4-0.5,0.4c-0.1,0-0.2,0-0.4,0
		c-0.2,0-0.3,0-0.4,0c0,0-0.1,0-0.3,0c-0.1,0-0.2,0-0.3,0c-0.2,0-0.3-0.1-0.3-0.4V9.5V9.3c-0.4,0.6-1,0.9-1.8,0.9
		c-0.8,0-1.5-0.3-2-0.9c-0.5-0.6-0.7-1.4-0.7-2.3c0-1,0.2-1.7,0.7-2.3C64.1,4.1,64.8,3.8,65.6,3.8z M67.3,8c0-0.3,0-0.6,0-1
		c0-0.5,0-0.9-0.1-1.1c-0.1-0.4-0.2-0.7-0.5-0.9c-0.3-0.3-0.7-0.4-1.1-0.4c-0.6,0-1,0.2-1.3,0.6s-0.5,1-0.5,1.7
		c0,0.8,0.2,1.4,0.5,1.8c0.3,0.4,0.8,0.7,1.4,0.7c0.4,0,0.8-0.1,1.1-0.4S67.3,8.4,67.3,8z"/>
</g>
</svg>
